<mxfile host="65bd71144e">
    <diagram id="TA91cQxe3ISVGfm7Xs7w" name="PÃ¡gina-1">
        <mxGraphModel dx="561" dy="1040" grid="1" gridSize="10" guides="1" tooltips="1" connect="1" arrows="1" fold="1" page="1" pageScale="1" pageWidth="827" pageHeight="1169" math="0" shadow="0">
            <root>
                <mxCell id="0"/>
                <mxCell id="1" parent="0"/>
                <mxCell id="17" value="inicio" style="ellipse;whiteSpace=wrap;html=1;" vertex="1" parent="1">
                    <mxGeometry x="299" y="60" width="120" height="80" as="geometry"/>
                </mxCell>
                <mxCell id="18" value="" style="shape=flexArrow;endArrow=classic;html=1;" edge="1" parent="1">
                    <mxGeometry width="50" height="50" relative="1" as="geometry">
                        <mxPoint x="362" y="140" as="sourcePoint"/>
                        <mxPoint x="362" y="200" as="targetPoint"/>
                    </mxGeometry>
                </mxCell>
                <mxCell id="19" value="determinar variables N1, N2 y N3" style="rounded=0;whiteSpace=wrap;html=1;" vertex="1" parent="1">
                    <mxGeometry x="302" y="200" width="120" height="60" as="geometry"/>
                </mxCell>
                <mxCell id="20" value="" style="shape=flexArrow;endArrow=classic;html=1;" edge="1" parent="1">
                    <mxGeometry width="50" height="50" relative="1" as="geometry">
                        <mxPoint x="358.71" y="260" as="sourcePoint"/>
                        <mxPoint x="359" y="320" as="targetPoint"/>
                    </mxGeometry>
                </mxCell>
                <mxCell id="21" value="solicitar numeros" style="shape=parallelogram;perimeter=parallelogramPerimeter;whiteSpace=wrap;html=1;fixedSize=1;" vertex="1" parent="1">
                    <mxGeometry x="299" y="320" width="120" height="60" as="geometry"/>
                </mxCell>
                <mxCell id="22" value="" style="shape=flexArrow;endArrow=classic;html=1;" edge="1" parent="1" target="23">
                    <mxGeometry width="50" height="50" relative="1" as="geometry">
                        <mxPoint x="349" y="380" as="sourcePoint"/>
                        <mxPoint x="349" y="430" as="targetPoint"/>
                    </mxGeometry>
                </mxCell>
                <mxCell id="23" value="guardar en variables N1, N2 y N3" style="rounded=0;whiteSpace=wrap;html=1;" vertex="1" parent="1">
                    <mxGeometry x="289" y="450" width="120" height="60" as="geometry"/>
                </mxCell>
                <mxCell id="24" value="" style="shape=flexArrow;endArrow=classic;html=1;" edge="1" parent="1" target="25">
                    <mxGeometry width="50" height="50" relative="1" as="geometry">
                        <mxPoint x="348.71" y="510" as="sourcePoint"/>
                        <mxPoint x="349" y="580" as="targetPoint"/>
                    </mxGeometry>
                </mxCell>
                <mxCell id="29" value="" style="edgeStyle=none;html=1;" edge="1" parent="1" source="25" target="28">
                    <mxGeometry relative="1" as="geometry"/>
                </mxCell>
                <mxCell id="33" value="" style="edgeStyle=none;html=1;" edge="1" parent="1" source="25">
                    <mxGeometry relative="1" as="geometry">
                        <mxPoint x="509" y="620" as="targetPoint"/>
                    </mxGeometry>
                </mxCell>
                <mxCell id="25" value="A == B == C" style="rhombus;whiteSpace=wrap;html=1;" vertex="1" parent="1">
                    <mxGeometry x="309" y="580" width="80" height="80" as="geometry"/>
                </mxCell>
                <mxCell id="31" value="" style="edgeStyle=none;html=1;entryX=0;entryY=0.5;entryDx=0;entryDy=0;" edge="1" parent="1" source="28" target="23">
                    <mxGeometry relative="1" as="geometry">
                        <mxPoint x="154" y="490" as="targetPoint"/>
                        <Array as="points">
                            <mxPoint x="154" y="480"/>
                        </Array>
                    </mxGeometry>
                </mxCell>
                <mxCell id="28" value="&amp;nbsp;mensaje &lt;br&gt;&quot;Alerta: los numeros ingresados son iguales&quot;&amp;nbsp;" style="shape=parallelogram;perimeter=parallelogramPerimeter;whiteSpace=wrap;html=1;fixedSize=1;" vertex="1" parent="1">
                    <mxGeometry x="59" y="600" width="190" height="50" as="geometry"/>
                </mxCell>
                <mxCell id="40" value="" style="edgeStyle=none;html=1;entryX=0.5;entryY=1;entryDx=0;entryDy=0;" edge="1" parent="1" source="34" target="47">
                    <mxGeometry relative="1" as="geometry">
                        <mxPoint x="709" y="620" as="targetPoint"/>
                        <Array as="points">
                            <mxPoint x="709" y="620"/>
                        </Array>
                    </mxGeometry>
                </mxCell>
                <mxCell id="50" value="" style="edgeStyle=none;html=1;" edge="1" parent="1" source="34">
                    <mxGeometry relative="1" as="geometry">
                        <mxPoint x="549" y="450" as="targetPoint"/>
                    </mxGeometry>
                </mxCell>
                <mxCell id="34" value="A&amp;gt;B&lt;br&gt;A&amp;gt;C" style="rhombus;whiteSpace=wrap;html=1;sketch=0;" vertex="1" parent="1">
                    <mxGeometry x="509" y="580" width="80" height="80" as="geometry"/>
                </mxCell>
                <mxCell id="37" value="No" style="text;html=1;strokeColor=none;fillColor=none;align=center;verticalAlign=middle;whiteSpace=wrap;rounded=0;" vertex="1" parent="1">
                    <mxGeometry x="422" y="600" width="60" height="30" as="geometry"/>
                </mxCell>
                <mxCell id="38" value="Si" style="text;html=1;strokeColor=none;fillColor=none;align=center;verticalAlign=middle;whiteSpace=wrap;rounded=0;" vertex="1" parent="1">
                    <mxGeometry x="249" y="600" width="60" height="30" as="geometry"/>
                </mxCell>
                <mxCell id="44" value="" style="edgeStyle=none;html=1;" edge="1" parent="1" source="42">
                    <mxGeometry relative="1" as="geometry">
                        <mxPoint x="639" y="715" as="targetPoint"/>
                    </mxGeometry>
                </mxCell>
                <mxCell id="42" value="si" style="text;html=1;strokeColor=none;fillColor=none;align=center;verticalAlign=middle;whiteSpace=wrap;rounded=0;" vertex="1" parent="1">
                    <mxGeometry x="609" y="590" width="60" height="30" as="geometry"/>
                </mxCell>
                <mxCell id="62" value="" style="edgeStyle=none;html=1;startArrow=none;" edge="1" parent="1" source="45" target="61">
                    <mxGeometry relative="1" as="geometry"/>
                </mxCell>
                <mxCell id="64" value="" style="edgeStyle=none;html=1;startArrow=none;" edge="1" parent="1" source="71" target="63">
                    <mxGeometry relative="1" as="geometry"/>
                </mxCell>
                <mxCell id="45" value="A&amp;lt;B&lt;br&gt;A&amp;lt;C" style="rhombus;whiteSpace=wrap;html=1;fillColor=none;sketch=0;" vertex="1" parent="1">
                    <mxGeometry x="599" y="720" width="80" height="80" as="geometry"/>
                </mxCell>
                <mxCell id="90" value="" style="edgeStyle=none;html=1;" edge="1" parent="1" source="47" target="89">
                    <mxGeometry relative="1" as="geometry"/>
                </mxCell>
                <mxCell id="47" value="escribir&amp;nbsp;&lt;br&gt;&quot;A es el mayor&quot;" style="shape=parallelogram;perimeter=parallelogramPerimeter;whiteSpace=wrap;html=1;fixedSize=1;sketch=0;" vertex="1" parent="1">
                    <mxGeometry x="649" y="470" width="120" height="60" as="geometry"/>
                </mxCell>
                <mxCell id="53" value="" style="edgeStyle=none;html=1;" edge="1" parent="1" source="51" target="52">
                    <mxGeometry relative="1" as="geometry"/>
                </mxCell>
                <mxCell id="57" value="" style="edgeStyle=none;html=1;" edge="1" parent="1" source="51" target="56">
                    <mxGeometry relative="1" as="geometry"/>
                </mxCell>
                <mxCell id="51" value="B&amp;gt;A&lt;br&gt;B&amp;gt;C" style="rhombus;whiteSpace=wrap;html=1;sketch=0;" vertex="1" parent="1">
                    <mxGeometry x="509" y="370" width="80" height="80" as="geometry"/>
                </mxCell>
                <mxCell id="88" value="" style="edgeStyle=none;html=1;" edge="1" parent="1" source="52" target="87">
                    <mxGeometry relative="1" as="geometry"/>
                </mxCell>
                <mxCell id="52" value="esccribir&lt;br&gt;&quot;B es el mayor&quot;" style="shape=parallelogram;perimeter=parallelogramPerimeter;whiteSpace=wrap;html=1;fixedSize=1;sketch=0;" vertex="1" parent="1">
                    <mxGeometry x="660" y="280" width="120" height="60" as="geometry"/>
                </mxCell>
                <mxCell id="85" value="" style="edgeStyle=none;html=1;" edge="1" parent="1" source="56" target="84">
                    <mxGeometry relative="1" as="geometry"/>
                </mxCell>
                <mxCell id="56" value="escribir&lt;br&gt;&quot;Ces el mayor&quot;" style="shape=parallelogram;perimeter=parallelogramPerimeter;whiteSpace=wrap;html=1;fixedSize=1;sketch=0;" vertex="1" parent="1">
                    <mxGeometry x="489" y="220" width="120" height="60" as="geometry"/>
                </mxCell>
                <mxCell id="59" value="No" style="text;html=1;strokeColor=none;fillColor=none;align=center;verticalAlign=middle;whiteSpace=wrap;rounded=0;" vertex="1" parent="1">
                    <mxGeometry x="499" y="310" width="60" height="30" as="geometry"/>
                </mxCell>
                <mxCell id="60" value="Si" style="text;html=1;strokeColor=none;fillColor=none;align=center;verticalAlign=middle;whiteSpace=wrap;rounded=0;" vertex="1" parent="1">
                    <mxGeometry x="589" y="380" width="60" height="30" as="geometry"/>
                </mxCell>
                <mxCell id="79" value="" style="edgeStyle=none;html=1;" edge="1" parent="1" source="61" target="78">
                    <mxGeometry relative="1" as="geometry"/>
                </mxCell>
                <mxCell id="61" value="escribir &quot;A es el Menor&quot;" style="shape=parallelogram;perimeter=parallelogramPerimeter;whiteSpace=wrap;html=1;fixedSize=1;fillColor=none;sketch=0;" vertex="1" parent="1">
                    <mxGeometry x="419" y="730" width="120" height="60" as="geometry"/>
                </mxCell>
                <mxCell id="66" value="" style="edgeStyle=none;html=1;" edge="1" parent="1" source="63" target="65">
                    <mxGeometry relative="1" as="geometry"/>
                </mxCell>
                <mxCell id="68" value="" style="edgeStyle=none;html=1;startArrow=none;" edge="1" parent="1" source="76" target="67">
                    <mxGeometry relative="1" as="geometry"/>
                </mxCell>
                <mxCell id="63" value="B&amp;lt;A&lt;br&gt;B&amp;lt;C" style="rhombus;whiteSpace=wrap;html=1;fillColor=none;sketch=0;" vertex="1" parent="1">
                    <mxGeometry x="599" y="880" width="80" height="80" as="geometry"/>
                </mxCell>
                <mxCell id="81" value="" style="edgeStyle=none;html=1;" edge="1" parent="1" source="65" target="80">
                    <mxGeometry relative="1" as="geometry"/>
                </mxCell>
                <mxCell id="65" value="escribir &quot;B es el menor&quot;" style="shape=parallelogram;perimeter=parallelogramPerimeter;whiteSpace=wrap;html=1;fixedSize=1;fillColor=none;sketch=0;" vertex="1" parent="1">
                    <mxGeometry x="419" y="890" width="120" height="60" as="geometry"/>
                </mxCell>
                <mxCell id="83" value="" style="edgeStyle=none;html=1;" edge="1" parent="1" source="67" target="82">
                    <mxGeometry relative="1" as="geometry"/>
                </mxCell>
                <mxCell id="67" value="escribir &quot;Ces el menor&quot;" style="shape=parallelogram;perimeter=parallelogramPerimeter;whiteSpace=wrap;html=1;fixedSize=1;fillColor=none;sketch=0;" vertex="1" parent="1">
                    <mxGeometry x="579" y="1050" width="120" height="60" as="geometry"/>
                </mxCell>
                <mxCell id="70" value="si" style="text;html=1;strokeColor=none;fillColor=none;align=center;verticalAlign=middle;whiteSpace=wrap;rounded=0;" vertex="1" parent="1">
                    <mxGeometry x="539" y="890" width="60" height="30" as="geometry"/>
                </mxCell>
                <mxCell id="74" value="" style="edgeStyle=none;html=1;endArrow=none;" edge="1" parent="1" source="45" target="69">
                    <mxGeometry relative="1" as="geometry">
                        <mxPoint x="599" y="760" as="sourcePoint"/>
                        <mxPoint x="529" y="760" as="targetPoint"/>
                    </mxGeometry>
                </mxCell>
                <mxCell id="69" value="si" style="text;html=1;strokeColor=none;fillColor=none;align=center;verticalAlign=middle;whiteSpace=wrap;rounded=0;" vertex="1" parent="1">
                    <mxGeometry x="539" y="730" width="60" height="30" as="geometry"/>
                </mxCell>
                <mxCell id="71" value="No" style="text;html=1;strokeColor=none;fillColor=none;align=center;verticalAlign=middle;whiteSpace=wrap;rounded=0;" vertex="1" parent="1">
                    <mxGeometry x="609" y="820" width="60" height="30" as="geometry"/>
                </mxCell>
                <mxCell id="75" value="" style="edgeStyle=none;html=1;endArrow=none;" edge="1" parent="1" source="45" target="71">
                    <mxGeometry relative="1" as="geometry">
                        <mxPoint x="639" y="800" as="sourcePoint"/>
                        <mxPoint x="639" y="880" as="targetPoint"/>
                    </mxGeometry>
                </mxCell>
                <mxCell id="76" value="No" style="text;html=1;strokeColor=none;fillColor=none;align=center;verticalAlign=middle;whiteSpace=wrap;rounded=0;" vertex="1" parent="1">
                    <mxGeometry x="609" y="990" width="60" height="30" as="geometry"/>
                </mxCell>
                <mxCell id="77" value="" style="edgeStyle=none;html=1;endArrow=none;" edge="1" parent="1" source="63" target="76">
                    <mxGeometry relative="1" as="geometry">
                        <mxPoint x="639" y="960" as="sourcePoint"/>
                        <mxPoint x="639" y="1050" as="targetPoint"/>
                    </mxGeometry>
                </mxCell>
                <mxCell id="78" value="fin" style="ellipse;whiteSpace=wrap;html=1;fillColor=none;sketch=0;" vertex="1" parent="1">
                    <mxGeometry x="219" y="730" width="120" height="60" as="geometry"/>
                </mxCell>
                <mxCell id="80" value="fin" style="ellipse;whiteSpace=wrap;html=1;fillColor=none;sketch=0;" vertex="1" parent="1">
                    <mxGeometry x="219" y="890" width="120" height="60" as="geometry"/>
                </mxCell>
                <mxCell id="82" value="fin" style="ellipse;whiteSpace=wrap;html=1;fillColor=none;sketch=0;" vertex="1" parent="1">
                    <mxGeometry x="379" y="1050" width="120" height="60" as="geometry"/>
                </mxCell>
                <mxCell id="84" value="fin&amp;nbsp;" style="ellipse;whiteSpace=wrap;html=1;sketch=0;" vertex="1" parent="1">
                    <mxGeometry x="489" y="80" width="120" height="60" as="geometry"/>
                </mxCell>
                <mxCell id="87" value="fin" style="ellipse;whiteSpace=wrap;html=1;sketch=0;" vertex="1" parent="1">
                    <mxGeometry x="660" y="140" width="120" height="60" as="geometry"/>
                </mxCell>
                <mxCell id="89" value="fin" style="ellipse;whiteSpace=wrap;html=1;sketch=0;" vertex="1" parent="1">
                    <mxGeometry x="649" y="370" width="120" height="60" as="geometry"/>
                </mxCell>
            </root>
        </mxGraphModel>
    </diagram>
</mxfile>